<svg version="1.1" viewBox="0.0 0.0 305.20997375328085 262.73753280839895" fill="none" stroke="none" stroke-linecap="square" stroke-miterlimit="10" xmlns:xlink="http://www.w3.org/1999/xlink" xmlns="http://www.w3.org/2000/svg"><clipPath id="p.0"><path d="m0 0l305.20996 0l0 262.73752l-305.20996 0l0 -262.73752z" clip-rule="nonzero"/></clipPath><g clip-path="url(#p.0)"><path fill="#000000" fill-opacity="0.0" d="m0 0l305.20996 0l0 262.73752l-305.20996 0z" fill-rule="evenodd"/><path fill="#000000" fill-opacity="0.0" d="m67.47244 111.968506l0 0c0 -47.722626 38.68683 -86.409454 86.409454 -86.409454l0 0c22.917206 0 44.895782 9.103825 61.100693 25.308743c16.204926 16.20491 25.308746 38.183495 25.308746 61.100708l0 0c0 47.722626 -38.68683 86.409454 -86.40944 86.409454l0 0c-47.722626 0 -86.409454 -38.68683 -86.409454 -86.409454z" fill-rule="evenodd"/><path stroke="#434343" stroke-width="24.0" stroke-linejoin="round" stroke-linecap="butt" d="m67.47244 111.968506l0 0c0 -47.722626 38.68683 -86.409454 86.409454 -86.409454l0 0c22.917206 0 44.895782 9.103825 61.100693 25.308743c16.204926 16.20491 25.308746 38.183495 25.308746 61.100708l0 0c0 47.722626 -38.68683 86.409454 -86.40944 86.409454l0 0c-47.722626 0 -86.409454 -38.68683 -86.409454 -86.409454z" fill-rule="evenodd"/><path fill="#000000" fill-opacity="0.0" d="m67.47244 152.32744l0 0c0 -47.72262 38.68683 -86.40945 86.409454 -86.40945l0 0c22.917206 0 44.895782 9.103828 61.100693 25.308739c16.204926 16.204918 25.308746 38.183502 25.308746 61.100708l0 0c0 47.722626 -38.68683 86.409454 -86.40944 86.409454l0 0c-47.722626 0 -86.409454 -38.68683 -86.409454 -86.409454z" fill-rule="evenodd"/><path stroke="#434343" stroke-width="24.0" stroke-linejoin="round" stroke-linecap="butt" d="m67.47244 152.32744l0 0c0 -47.72262 38.68683 -86.40945 86.409454 -86.40945l0 0c22.917206 0 44.895782 9.103828 61.100693 25.308739c16.204926 16.204918 25.308746 38.183502 25.308746 61.100708l0 0c0 47.722626 -38.68683 86.409454 -86.40944 86.409454l0 0c-47.722626 0 -86.409454 -38.68683 -86.409454 -86.409454z" fill-rule="evenodd"/></g></svg>